name C:\Users\u0101727\Documents\MyRepositories\paper-ad\trackingsimulations_3d\Results\TrackSim\IK_c13.mot
datacolumns 32
datarows 16
range 3.85000000 4.09000000
endheader
time	pelvis_tilt	pelvis_list	pelvis_rotation	pelvis_tx	pelvis_ty	pelvis_tz	hip_flexion_l	hip_adduction_l	hip_rotation_l	hip_flexion_r	hip_adduction_r	hip_rotation_r	knee_angle_l	knee_angle_r	ankle_angle_l	ankle_angle_r	subtalar_angle_l	subtalar_angle_r	lumbar_extension	lumbar_bending	lumbar_rotation	arm_flex_l	arm_add_l	arm_rot_l	arm_flex_r	arm_add_r	arm_rot_r	elbow_flex_l	elbow_flex_r	pro_sup_l	pro_sup_r	
          3.85000000	          0.29787527	         -3.00667037	          7.11386086	          0.02569134	          0.92269417	         -0.22396926	        -11.51091530	         -4.78744761	          1.37392323	         26.47758809	          4.46095237	         -7.54905099	        -36.10440808	        -22.69799909	         -4.24828538	         -5.94207172	         13.31764495	        -10.98375832	         -3.96832108	          5.51738443	         -8.62712969	         -1.76159916	        -14.53303079	         19.20509144	         -9.28491107	        -15.61493705	         14.50120977	         22.97139322	         11.48968203	         86.51662706	         86.51662706	
          3.86600000	          0.45617855	         -4.03978273	          6.94208656	          0.04931905	          0.92345986	         -0.22270840	         -9.53673106	         -6.01818806	          1.23214042	         25.56476168	          5.89715459	         -7.47269603	        -40.38560604	        -23.97881217	        -10.32517193	         -3.94156705	         11.95046957	        -11.14281038	         -3.77099561	          6.84517950	         -8.19246397	         -2.26122782	        -14.03085023	         19.48335133	         -9.05998490	        -15.91106216	         14.48131128	         21.88497773	         11.80827541	         86.51662706	         86.51662706	
          3.88200000	          0.64837281	         -4.88794025	          6.85943444	          0.07207391	          0.92477728	         -0.22169985	         -7.21008956	         -6.86553343	          1.79571670	         24.28424903	          7.08546227	         -7.50129163	        -44.73397545	        -24.66541687	        -15.43725847	         -1.92277671	         10.76417722	        -10.94365621	         -3.75573345	          7.95590668	         -7.77321080	         -2.62364751	        -13.59401434	         19.90573073	         -8.72962429	        -16.20639034	         14.34703038	         20.84098898	         12.32889743	         86.51662706	         86.51662706	
          3.89800000	          0.85965968	         -5.58269869	          6.87763028	          0.09388746	          0.92661848	         -0.22091376	         -4.56298633	         -7.37586954	          2.78843750	         22.72866437	          8.07205518	         -7.59293449	        -49.20023048	        -24.82879396	        -18.05085088	         -0.09556975	          9.73791259	        -10.56961714	         -3.90239644	          8.87988437	         -7.36263809	         -2.83715922	        -13.23890037	         20.47448481	         -8.31122829	        -16.50419825	         14.11754925	         19.88854173	         13.07896828	         86.51662706	         86.51662706	
          3.91400000	          1.08582891	         -6.10382702	          7.01537512	          0.11486053	          0.92902307	         -0.22034511	         -1.70629927	         -7.54922931	          4.01431581	         20.95458522	          8.84334110	         -7.72679496	        -53.44654032	        -24.55578041	        -19.11238416	          1.46990303	          8.06091103	        -10.09598961	         -4.18217580	          9.58983309	         -6.98314032	         -2.92580059	        -12.98413319	         21.15422540	         -7.84524740	        -16.80033109	         13.81790537	         19.06683695	         14.08773049	         86.51662706	         86.51662706	
          3.93000000	          1.30364122	         -6.39640110	          7.26776241	          0.13514749	          0.93198096	         -0.21996580	          1.32714043	         -7.34317280	          5.40259803	         19.03011637	          9.34727218	         -7.88761145	        -57.38822647	        -23.95457155	        -18.54172044	          2.79424019	          6.41748904	         -9.53134418	         -4.54036791	         10.01477639	         -6.65281374	         -2.93285224	        -12.84496936	         21.87273131	         -7.37112300	        -17.08312579	         13.47478899	         18.39838320	         15.36217534	         86.51662706	         86.51662706	
          3.94600000	          1.48202856	         -6.43961034	          7.58237194	          0.15494990	          0.93538074	         -0.21968938	          4.47200788	         -6.76210243	          6.79627409	         17.02461141	          9.57461394	         -8.05448512	        -60.84874005	        -23.12481468	        -16.78875534	          3.91050122	          5.05497585	         -8.87708536	         -4.90899903	         10.12150241	         -6.35185290	         -2.91778542	        -12.82183975	         22.53666268	         -6.91981693	        -17.34850127	         13.10932434	         17.90278401	         16.87540466	         86.51662706	         86.51662706	
          3.96200000	          1.59371063	         -6.24217569	          7.88127567	          0.17445461	          0.93904836	         -0.21940748	          7.64911389	         -5.85437791	          8.01106870	         15.00069622	          9.54828053	         -8.19551785	        -63.63662534	        -22.15458181	        -14.40292677	          4.84615842	          3.87808449	         -8.15003898	         -5.23163362	          9.91279865	         -6.03205205	         -2.93876335	        -12.90174696	         23.04534015	         -6.50692652	        -17.59878754	         12.73770601	         17.59789470	         18.57464146	         86.51662706	         86.51662706	
          3.97800000	          1.61797052	         -5.83738550	          8.05706700	          0.19379335	          0.94277321	         -0.21897155	         10.78393457	         -4.70909069	          8.88991253	         13.02546803	          9.32423811	         -8.22787013	        -65.62216791	        -21.13426221	        -11.80936779	          5.60520238	          3.00006994	         -7.42709512	         -5.47757815	          9.41914465	         -5.60435088	         -3.04050202	        -13.06286314	         23.30716531	         -6.13491313	        -17.84253302	         12.37339471	         17.49994926	         20.39798152	         86.51662706	         86.51662706	
          3.99400000	          1.55099300	         -5.26968326	          8.03724830	          0.21302775	          0.94633964	         -0.21829747	         13.80167949	         -3.43149749	          9.33320918	         11.15479807	          8.94872364	         -8.10476774	        -66.71119064	        -20.15456100	         -9.12547156	          6.22370658	          2.24837178	         -6.74317065	         -5.64426563	          8.69166062	         -5.01157433	         -3.24354320	        -13.27817219	         23.26497307	         -5.78736220	        -18.09336290	         12.02452158	         17.60763973	         22.28806861	         86.51662706	         86.51662706	
          4.01000000	          1.41194586	         -4.61143428	          7.80504222	          0.23218133	          0.94957168	         -0.21738170	         16.63929537	         -2.15607802	          9.33732696	          9.40894436	          8.48173147	         -7.82802705	        -66.84488955	        -19.26516142	         -6.54189049	          6.73726623	          1.51029978	         -6.09390915	         -5.75012175	          7.82293972	         -4.24991433	         -3.54370874	        -13.51464397	         22.91169067	         -5.43362102	        -18.36985598	         11.69429024	         17.89433701	         24.19398130	         86.51662706	         86.51662706	
          4.02600000	          1.24111830	         -3.95988631	          7.37717547	          0.25127102	          0.95234170	         -0.21625013	         19.24317831	         -1.02982874	          8.97250388	          7.76010701	          8.01762574	         -7.41854094	        -66.02634701	        -18.45462274	         -4.28536733	          7.15013497	          0.75390361	         -5.49868344	         -5.83122412	          6.93758176	         -3.34186179	         -3.91805996	        -13.73656506	         22.28632598	         -5.04148519	        -18.69184200	         11.38485849	         18.31030297	         26.07059655	         86.51662706	         86.51662706	
          4.04200000	          1.08424561	         -3.38867851	          6.81032275	          0.27029464	          0.95454656	         -0.21498090	         21.55916446	         -0.14292684	          8.35572697	          6.17095249	          7.61781154	         -6.94450013	        -64.28416564	        -17.72233502	         -2.29000099	          7.50343978	         -0.24262732	         -4.92226414	         -5.93036482	          6.13468664	         -2.34923679	         -4.32887817	        -13.91567879	         21.46490928	         -4.58069874	        -19.07152162	         11.10159699	         18.78543001	         27.88419188	         86.51662706	         86.51662706	
          4.05800000	          0.98135877	         -2.92649042	          6.16323101	          0.28926003	          0.95611440	         -0.21365523	         23.53103609	          0.48422557	          7.60966914	          4.60438408	          7.29660173	         -6.47489040	        -61.65728287	        -17.08505114	         -0.41260640	          7.86793059	         -1.41506344	         -4.29404799	         -6.08918825	          5.45898098	         -1.33672118	         -4.73631649	        -14.03561570	         20.54416297	         -4.03102937	        -19.51008943	         10.85753320	         19.24219467	         29.61093815	         86.51662706	         86.51662706	
          4.07400000	          0.96436862	         -2.57545024	          5.48596385	          0.30820424	          0.95701326	         -0.21234261	         25.11292320	          0.87175339	          6.81964151	          3.00782889	          7.04829766	         -6.06432909	        -58.19847704	        -16.52922464	          1.16792221	          8.29665684	         -2.88138583	         -3.56313150	         -6.34034127	          4.92079007	         -0.35614476	         -5.10644168	        -14.08859175	         19.62487758	         -3.38632208	        -20.00125645	         10.66969893	         19.61008327	         31.23221413	         86.51662706	         86.51662706	
          4.09000000	          1.04160236	         -2.31963168	          4.81625649	          0.32718189	          0.95723958	         -0.21108978	         26.28990652	          1.06169558	          6.05358838	          1.34929277	          6.85445420	         -5.73607274	        -53.96601503	        -16.03532623	          1.98883226	          8.81317536	         -4.40857690	         -2.71589635	         -6.68873028	          4.50261028	          0.55581204	         -5.41528301	        -14.07568490	         18.79835894	         -2.65547560	        -20.53125306	         10.55650461	         19.83332722	         32.73705777	         86.51662706	         86.51662706	
